<svg xmlns="http://www.w3.org/2000/svg" viewBox="0 0 32 32">
  <!-- generated by make_icon.py — edit that, not this -->
  <rect x="3.12" y="3.12" width="25.75" height="25.75" rx="7" fill="#B33A1C"/>
  <path fill="#F7F3EB" d="M10.08 21.23L10.08 21.20L10.08 21.18L10.08 21.16L10.09 21.14L10.09 21.13L10.10 21.11L10.11 21.09L10.12 21.07L10.13 21.05L10.14 21.04L10.15 21.02L10.17 21.00L10.18 20.99L10.20 20.97L10.22 20.96L10.24 20.95L10.26 20.93L10.28 20.92L10.30 20.91L10.32 20.90L10.34 20.89L10.37 20.88L10.39 20.87L10.42 20.86L10.89 20.77L10.91 20.76L10.94 20.76L10.96 20.75L10.98 20.74L11.00 20.73L11.02 20.73L11.04 20.72L11.05 20.71L11.07 20.70L11.09 20.68L11.11 20.67L11.12 20.66L11.14 20.65L11.16 20.63L11.17 20.62L11.19 20.60L11.20 20.58L11.22 20.56L11.23 20.54L11.25 20.52L11.26 20.50L11.28 20.47L11.29 20.45L11.30 20.42L11.32 20.39L11.33 20.36L11.35 20.33L11.36 20.30L11.37 20.26L11.39 20.23L11.40 20.19L11.42 20.15L11.43 20.11L11.45 20.07L11.46 20.02L11.48 19.98L11.49 19.92L11.51 19.85L11.53 19.79L11.54 19.72L11.56 19.65L11.58 19.57L11.60 19.50L11.62 19.42L11.65 19.33L11.67 19.25L11.69 19.16L11.72 19.07L11.74 18.98L11.77 18.88L11.80 18.78L11.82 18.69L11.85 18.59L11.88 18.48L11.91 18.38L11.93 18.27L11.96 18.17L11.99 18.06L12.02 17.95L12.05 17.83L12.08 17.72L12.11 17.61L12.14 17.49L12.18 17.37L12.21 17.26L12.24 17.14L12.27 17.02L12.30 16.90L12.34 16.78L12.37 16.66L12.40 16.54L12.43 16.42L12.47 16.29L12.50 16.17L12.53 16.05L12.56 15.93L12.60 15.80L12.63 15.68L12.66 15.56L12.69 15.44L12.73 15.32L12.76 15.20L12.79 15.08L12.82 14.95L12.86 14.83L12.89 14.72L12.92 14.60L12.95 14.48L12.98 14.37L13.01 14.25L13.04 14.14L13.07 14.03L13.10 13.92L13.13 13.81L13.16 13.70L13.18 13.59L13.21 13.49L13.24 13.39L13.26 13.29L13.29 13.19L13.31 13.09L13.34 12.99L13.36 12.90L13.38 12.81L13.41 12.72L13.43 12.64L13.45 12.55L13.47 12.47L13.49 12.39L13.51 12.32L13.53 12.24L13.54 12.17L13.56 12.11L13.57 12.04L13.59 11.98L13.60 11.93L13.61 11.87L13.63 11.82L13.64 11.78L13.65 11.73L13.65 11.70L13.66 11.66L13.67 11.63L13.67 11.59L13.67 11.56L13.67 11.53L13.67 11.51L13.67 11.48L13.66 11.46L13.66 11.43L13.65 11.41L13.64 11.39L13.63 11.37L13.62 11.35L13.61 11.34L13.59 11.32L13.57 11.31L13.55 11.29L13.53 11.28L13.51 11.27L13.48 11.26L13.45 11.25L13.42 11.24L13.39 11.23L12.95 11.13L12.92 11.12L12.90 11.11L12.87 11.10L12.85 11.09L12.83 11.08L12.81 11.07L12.79 11.06L12.78 11.05L12.76 11.04L12.75 11.03L12.73 11.02L12.72 11.01L12.71 10.99L12.70 10.98L12.69 10.97L12.68 10.96L12.67 10.94L12.67 10.93L12.66 10.91L12.66 10.89L12.65 10.88L12.65 10.86L12.65 10.84L12.65 10.82L12.65 10.79L12.65 10.77L12.66 10.74L12.66 10.72L12.67 10.70L12.68 10.67L12.69 10.65L12.70 10.63L12.72 10.61L12.73 10.59L12.75 10.58L12.77 10.56L12.79 10.55L12.81 10.53L12.84 10.52L12.86 10.51L12.89 10.50L12.92 10.49L12.95 10.48L12.98 10.48L13.01 10.47L13.05 10.47L13.08 10.47L13.12 10.47L17.38 10.47L17.57 10.47L17.75 10.48L17.93 10.49L18.11 10.51L18.29 10.53L18.46 10.56L18.63 10.59L18.80 10.63L18.96 10.68L19.13 10.73L19.28 10.78L19.44 10.84L19.59 10.91L19.74 10.98L19.88 11.05L20.02 11.13L20.15 11.22L20.28 11.31L20.41 11.40L20.53 11.50L20.64 11.60L20.76 11.71L20.86 11.82L20.97 11.94L21.07 12.06L21.16 12.19L21.25 12.32L21.33 12.45L21.41 12.59L21.49 12.73L21.55 12.88L21.61 13.03L21.67 13.19L21.72 13.35L21.77 13.51L21.81 13.68L21.85 13.86L21.87 14.03L21.90 14.21L21.91 14.40L21.92 14.59L21.92 14.78L21.92 14.97L21.91 15.17L21.89 15.38L21.87 15.58L21.84 15.79L21.80 16.01L21.76 16.22L21.71 16.44L21.66 16.65L21.60 16.85L21.53 17.05L21.47 17.25L21.39 17.44L21.31 17.63L21.23 17.81L21.14 17.99L21.04 18.17L20.94 18.34L20.84 18.51L20.73 18.68L20.62 18.84L20.50 18.99L20.38 19.15L20.26 19.29L20.13 19.43L20.00 19.57L19.86 19.71L19.72 19.84L19.57 19.96L19.42 20.08L19.27 20.20L19.11 20.31L18.96 20.41L18.79 20.52L18.63 20.61L18.46 20.71L18.29 20.79L18.11 20.88L17.93 20.96L17.75 21.03L17.56 21.10L17.38 21.16L17.19 21.22L16.99 21.28L16.80 21.33L16.60 21.37L16.40 21.41L16.20 21.44L15.99 21.47L15.78 21.49L15.58 21.51L15.36 21.52L15.15 21.53L14.93 21.53L10.47 21.53L10.43 21.53L10.39 21.53L10.36 21.53L10.33 21.53L10.30 21.52L10.28 21.51L10.25 21.51L10.23 21.50L10.21 21.49L10.19 21.47L10.17 21.46L10.16 21.45L10.15 21.43L10.13 21.42L10.12 21.40L10.11 21.38L10.11 21.37L10.10 21.35L10.09 21.33L10.09 21.31L10.08 21.29L10.08 21.27L10.08 21.25L10.08 21.23ZM15.06 20.83L15.17 20.83L15.29 20.82L15.40 20.81L15.52 20.80L15.63 20.78L15.74 20.76L15.86 20.73L15.97 20.70L16.08 20.66L16.19 20.63L16.30 20.58L16.40 20.54L16.51 20.49L16.62 20.43L16.72 20.37L16.82 20.31L16.93 20.24L17.03 20.17L17.13 20.09L17.22 20.01L17.32 19.92L17.41 19.83L17.51 19.74L17.60 19.64L17.69 19.54L17.78 19.43L17.87 19.32L17.95 19.21L18.04 19.09L18.12 18.96L18.20 18.83L18.28 18.70L18.35 18.56L18.43 18.42L18.50 18.27L18.57 18.12L18.64 17.97L18.70 17.81L18.77 17.64L18.83 17.47L18.89 17.30L18.94 17.12L19.00 16.94L19.05 16.75L19.10 16.56L19.14 16.36L19.19 16.16L19.23 15.95L19.27 15.75L19.30 15.55L19.33 15.36L19.36 15.17L19.38 14.98L19.40 14.80L19.41 14.63L19.42 14.46L19.42 14.29L19.42 14.13L19.42 13.97L19.41 13.82L19.40 13.67L19.39 13.53L19.37 13.39L19.35 13.25L19.32 13.12L19.30 12.99L19.27 12.87L19.23 12.75L19.20 12.64L19.16 12.53L19.11 12.42L19.07 12.32L19.02 12.23L18.97 12.13L18.91 12.05L18.86 11.96L18.80 11.88L18.74 11.81L18.68 11.74L18.61 11.67L18.55 11.61L18.48 11.55L18.41 11.49L18.33 11.44L18.26 11.39L18.18 11.35L18.11 11.31L18.03 11.28L17.95 11.25L17.87 11.22L17.78 11.20L17.70 11.18L17.62 11.17L17.53 11.16L17.44 11.15L17.36 11.15L16.85 11.15L16.80 11.15L16.76 11.16L16.71 11.16L16.67 11.17L16.62 11.18L16.58 11.20L16.54 11.22L16.50 11.24L16.46 11.26L16.42 11.28L16.38 11.31L16.35 11.34L16.32 11.38L16.28 11.41L16.25 11.46L16.22 11.50L16.19 11.55L16.16 11.60L16.13 11.65L16.10 11.71L16.08 11.77L16.05 11.84L16.03 11.90L16.00 11.97L15.99 12.02L15.98 12.07L15.96 12.13L15.95 12.18L15.93 12.24L15.92 12.30L15.90 12.37L15.88 12.44L15.86 12.51L15.84 12.58L15.82 12.66L15.80 12.74L15.78 12.82L15.75 12.90L15.73 12.99L15.71 13.08L15.68 13.16L15.66 13.26L15.63 13.35L15.61 13.45L15.58 13.54L15.55 13.64L15.53 13.74L15.50 13.85L15.47 13.95L15.44 14.06L15.41 14.16L15.38 14.27L15.35 14.38L15.32 14.49L15.29 14.60L15.26 14.71L15.23 14.82L15.20 14.93L15.17 15.05L15.14 15.16L15.10 15.28L15.07 15.40L15.04 15.51L15.01 15.63L14.98 15.74L14.95 15.86L14.92 15.98L14.88 16.09L14.85 16.21L14.82 16.32L14.79 16.44L14.76 16.56L14.73 16.67L14.70 16.79L14.67 16.90L14.64 17.02L14.61 17.13L14.58 17.24L14.55 17.35L14.52 17.46L14.49 17.57L14.46 17.68L14.43 17.79L14.41 17.89L14.38 18.00L14.35 18.10L14.33 18.20L14.30 18.30L14.27 18.40L14.25 18.50L14.23 18.59L14.20 18.68L14.18 18.77L14.16 18.86L14.14 18.95L14.12 19.04L14.10 19.12L14.08 19.20L14.06 19.28L14.04 19.35L14.03 19.42L14.01 19.49L14.00 19.56L13.98 19.62L13.97 19.68L13.96 19.74L13.95 19.80L13.94 19.85L13.92 19.93L13.91 20.01L13.91 20.08L13.90 20.15L13.90 20.22L13.90 20.28L13.91 20.34L13.91 20.40L13.93 20.45L13.94 20.50L13.96 20.55L13.98 20.59L14.00 20.63L14.03 20.66L14.06 20.69L14.10 20.72L14.13 20.75L14.18 20.77L14.22 20.79L14.27 20.80L14.32 20.81L14.37 20.82L14.43 20.83L14.49 20.83Z"/>
</svg>
